<?xml version="1.0" encoding="UTF-8" standalone="no"?>
<!-- Generator: Adobe Illustrator 19.0.0, SVG Export Plug-In . SVG Version: 6.00 Build 0)  -->

<svg
   xmlns:dc="http://purl.org/dc/elements/1.1/"
   xmlns:cc="http://creativecommons.org/ns#"
   xmlns:rdf="http://www.w3.org/1999/02/22-rdf-syntax-ns#"
   xmlns:svg="http://www.w3.org/2000/svg"
   xmlns="http://www.w3.org/2000/svg"
   xmlns:sodipodi="http://sodipodi.sourceforge.net/DTD/sodipodi-0.dtd"
   xmlns:inkscape="http://www.inkscape.org/namespaces/inkscape"
   version="1.1"
   id="Capa_1"
   x="0px"
   y="0px"
   viewBox="0 0 60 60"
   style="enable-background:new 0 0 60 60;"
   xml:space="preserve"
   sodipodi:docname="about-housing-standards.svg"
   inkscape:version="0.92.1 r15371"><metadata
   id="metadata1466"><rdf:RDF><cc:Work
       rdf:about=""><dc:format>image/svg+xml</dc:format><dc:type
         rdf:resource="http://purl.org/dc/dcmitype/StillImage" /></cc:Work></rdf:RDF></metadata><defs
   id="defs1464" /><sodipodi:namedview
   pagecolor="#ffffff"
   bordercolor="#666666"
   borderopacity="1"
   objecttolerance="10"
   gridtolerance="10"
   guidetolerance="10"
   inkscape:pageopacity="0"
   inkscape:pageshadow="2"
   inkscape:window-width="1280"
   inkscape:window-height="657"
   id="namedview1462"
   showgrid="false"
   inkscape:zoom="3.9333333"
   inkscape:cx="-13.09322"
   inkscape:cy="30"
   inkscape:window-x="-8"
   inkscape:window-y="-8"
   inkscape:window-maximized="1"
   inkscape:current-layer="Capa_1" />
<g
   id="g1429"
   style="fill:#22ac6f;fill-opacity:1">
	<path
   d="M38.914,0H6.5v60h47V14.586L38.914,0z M39.5,3.414L50.086,14H39.5V3.414z M8.5,58V2h29v14h14v42H8.5z"
   id="path1415"
   style="fill:#22ac6f;fill-opacity:1" />
	<path
   d="M42.5,21h-16c-0.552,0-1,0.447-1,1s0.448,1,1,1h16c0.552,0,1-0.447,1-1S43.052,21,42.5,21z"
   id="path1417"
   style="fill:#22ac6f;fill-opacity:1" />
	<path
   d="M22.875,18.219l-4.301,3.441l-1.367-1.367c-0.391-0.391-1.023-0.391-1.414,0s-0.391,1.023,0,1.414l2,2   C17.987,23.901,18.243,24,18.5,24c0.22,0,0.441-0.072,0.624-0.219l5-4c0.432-0.346,0.501-0.975,0.156-1.406   C23.936,17.943,23.306,17.874,22.875,18.219z"
   id="path1419"
   style="fill:#22ac6f;fill-opacity:1" />
	<path
   d="M42.5,32h-16c-0.552,0-1,0.447-1,1s0.448,1,1,1h16c0.552,0,1-0.447,1-1S43.052,32,42.5,32z"
   id="path1421"
   style="fill:#22ac6f;fill-opacity:1" />
	<path
   d="M22.875,29.219l-4.301,3.441l-1.367-1.367c-0.391-0.391-1.023-0.391-1.414,0s-0.391,1.023,0,1.414l2,2   C17.987,34.901,18.243,35,18.5,35c0.22,0,0.441-0.072,0.624-0.219l5-4c0.432-0.346,0.501-0.975,0.156-1.406   C23.936,28.943,23.306,28.874,22.875,29.219z"
   id="path1423"
   style="fill:#22ac6f;fill-opacity:1" />
	<path
   d="M42.5,43h-16c-0.552,0-1,0.447-1,1s0.448,1,1,1h16c0.552,0,1-0.447,1-1S43.052,43,42.5,43z"
   id="path1425"
   style="fill:#22ac6f;fill-opacity:1" />
	<path
   d="M22.875,40.219l-4.301,3.441l-1.367-1.367c-0.391-0.391-1.023-0.391-1.414,0s-0.391,1.023,0,1.414l2,2   C17.987,45.901,18.243,46,18.5,46c0.22,0,0.441-0.072,0.624-0.219l5-4c0.432-0.346,0.501-0.975,0.156-1.406   C23.936,39.943,23.306,39.874,22.875,40.219z"
   id="path1427"
   style="fill:#22ac6f;fill-opacity:1" />
</g>
<g
   id="g1431"
   style="fill:#22ac6f;fill-opacity:1">
</g>
<g
   id="g1433"
   style="fill:#22ac6f;fill-opacity:1">
</g>
<g
   id="g1435"
   style="fill:#22ac6f;fill-opacity:1">
</g>
<g
   id="g1437"
   style="fill:#22ac6f;fill-opacity:1">
</g>
<g
   id="g1439"
   style="fill:#22ac6f;fill-opacity:1">
</g>
<g
   id="g1441"
   style="fill:#22ac6f;fill-opacity:1">
</g>
<g
   id="g1443"
   style="fill:#22ac6f;fill-opacity:1">
</g>
<g
   id="g1445"
   style="fill:#22ac6f;fill-opacity:1">
</g>
<g
   id="g1447"
   style="fill:#22ac6f;fill-opacity:1">
</g>
<g
   id="g1449"
   style="fill:#22ac6f;fill-opacity:1">
</g>
<g
   id="g1451"
   style="fill:#22ac6f;fill-opacity:1">
</g>
<g
   id="g1453"
   style="fill:#22ac6f;fill-opacity:1">
</g>
<g
   id="g1455"
   style="fill:#22ac6f;fill-opacity:1">
</g>
<g
   id="g1457"
   style="fill:#22ac6f;fill-opacity:1">
</g>
<g
   id="g1459"
   style="fill:#22ac6f;fill-opacity:1">
</g>
</svg>