<?xml version="1.0" encoding="UTF-8" standalone="no"?>
<svg id="svg2" xmlns="http://www.w3.org/2000/svg" height="256pt" width="167.2pt" version="1.1" viewBox="0 0 167.2 256">
 <path id="background" fill="#007059" d="m0.0000043848-0.000053193h167.2v256h-167.2z"/>
 <path id="Green" d="m31.172 168.08c-7.4369 0-10.528 6.9071-10.528 12.898 0 6.6629 2.8016 12.556 10.141 12.556 3.625 0 6.5243-1.8317 7.7297-3.9578h0.0984c0 4.2967-0.33817 9.6609-7.4859 9.6609-2.0327 0-5.266-1.112-7.2453-2.175l-0.53437 5.5062c3.0913 1.3032 6.0409 1.6906 8.5984 1.6906 10.435 0 13.139-6.3738 13.139-13.139v-22.462h-6.1828v3.3812h-0.0984c-1.7836-2.8466-4.3443-3.9594-7.6312-3.9594zm2.0312 5.0219c3.7674 0 5.4094 3.4775 5.4094 7.7297 0 4.1543-1.6406 7.6828-5.7016 7.6828-3.7184 0-5.5078-4.1556-5.5078-7.5359 0-3.8207 1.4055-7.8766 5.8-7.8766zm17.432-4.4436h5.7467v5.6533h0.0978c0.29356-2.3173 2.949-6.2315 6.8142-6.2315 0.62715 0 1.3032 0 1.9793 0.19126v6.5206c-0.57823-0.33804-1.7391-0.5293-2.9-0.5293-5.2618 0-5.2618 6.5695-5.2618 10.146v9.1271h-6.4761zm28.512-0.57823c-7.7304 0-11.542 5.9424-11.542 13.139 0 8.1619 4.7814 12.894 12.992 12.894 3.4782 0 6.1822-0.67046 8.5484-1.9781v-5.2625c-2.4152 1.3477-5.1192 2.5094-8.2594 2.5094-4.0076 0-6.8093-2.2693-7.0984-6.2813h17.195c0-8.6912-2.611-15.02-11.836-15.02zm0.38749 4.7328c3.625 0 5.0699 2.708 5.2656 5.8438h-11.012c0.28912-3.3315 2.1218-5.8438 5.7469-5.8438zm26.469-4.7328c-7.7304 0-11.547 5.9424-11.547 13.139 0 8.1619 4.7861 12.894 12.997 12.894 3.4782 0 6.1822-0.67046 8.5484-1.9781v-5.2625c-2.4152 1.3477-5.1192 2.5094-8.2594 2.5094-4.0076 0-6.8093-2.2693-7.0984-6.2813h17.195c0-8.6912-2.611-15.02-11.836-15.02zm0.38751 4.7328c3.6206 0 5.0699 2.708 5.2656 5.8438h-11.012c0.2891-3.3315 2.1218-5.8438 5.7469-5.8438zm16.519-4.1546h6.1336v3.3804h0.0978c2.0282-2.8466 4.7815-3.9586 8.1619-3.9586 5.8934 0 8.4554 4.1543 8.4554 9.7542v15.701h-6.4761v-13.286c0-3.0379-0.049-7.1478-4.2032-7.1478-4.6836 0-5.6978 5.075-5.6978 8.2597v12.174h-6.4717z" fill="#fff"/>
 <path id="Party" d="m109.96 215.75h0.0534l3.4204-10.372h3.754l-5.3286 14.095c-1.1831 3.1446-2.0371 6.2359-5.9023 6.2359-0.88068 0-1.7658-0.13788-2.6198-0.38696l0.24908-2.731c0.46702 0.16457 0.99187 0.24908 1.9037 0.24908 1.4856 0 2.3974-1.023 2.3974-2.5397l-5.4309-14.923h4.0787zm-16.128-7.6726h-2.731v-2.6999h2.731v-2.8422l3.6962-1.1876v4.0298h3.2825v2.6999h-3.2825v6.6229c0 1.2143 0.33359 2.344 1.7391 2.344 0.66274 0 1.2943-0.13789 1.6813-0.38252l0.11125 2.9223c-0.76948 0.2224-1.6279 0.32915-2.731 0.32915-2.8956 0-4.4968-1.7925-4.4968-4.608zm-12.699-2.6999h3.2825v3.2247h0.0578c0.16457-1.321 1.6813-3.5583 3.8874-3.5583 0.36029 0 0.74281 0 1.1342 0.11125v3.7229c-0.33359-0.19126-0.99633-0.30245-1.6591-0.30245-3.0068 0-3.0068 3.754-3.0068 5.7911v5.2174h-3.6962zm-9.5318 11.836c1.1298 0 2.0149-0.49816 2.5931-1.2721 0.60935-0.80063 0.77393-1.8192 0.77393-2.9267h-1.6012c-1.6546 0-4.1098 0.28022-4.1098 2.4552 0 1.2187 1.0186 1.7436 2.344 1.7436m-4.331-11.1c1.4367-0.66274 3.367-1.0764 4.9416-1.0764 4.3278 0 6.1247 1.7925 6.1247 5.9869v1.8192c0 1.4367 0.0267 2.513 0.0534 3.5628 0.0267 1.0764 0.0845 2.0683 0.16457 3.1713h-3.2558c-0.1379-0.74725-0.1379-1.6857-0.16457-2.1261h-0.0534c-0.85399 1.5746-2.7043 2.4552-4.3856 2.4552-2.5131 0-4.9683-1.5167-4.9683-4.221 0-2.1216 1.023-3.3626 2.4285-4.052 1.4055-0.68942 3.2292-0.8273 4.7726-0.8273h2.0416c0-2.2907-1.0186-3.0646-3.2025-3.0646-1.5701 0-3.1446 0.60491-4.3856 1.5434zm-13.241 6.316c0 2.0149 0.80063 4.608 3.2559 4.608 2.4286 0 3.118-2.6465 3.118-4.608 0-1.9037-0.65829-4.5235-3.0602-4.5235-2.3707 0-3.3137 2.5397-3.3137 4.5235m-3.7229-7.0588h3.5316v2.0104h0.0534c0.8273-1.3788 2.2373-2.344 4.4167-2.344 4.3589 0 5.9602 3.4782 5.9602 7.3924 0 3.8919-1.6012 7.4769-6.0402 7.4769-1.5746 0-2.8733-0.38698-4.1677-1.9571h-0.0534v7.4191h-3.7006z" fill="#fff"/>
 <path id="Comhaontas" d="m105.87 241.46c0.56487 0.36472 1.3788 0.55153 1.7925 0.55153 0.65828 0 1.4722-0.27577 1.4722-1.1209 0-1.4233-3.3893-1.3032-3.3893-3.4916 0-1.6279 1.2098-2.4108 2.7577-2.4108 0.67608 0 1.2276 0.1379 1.7969 0.30691l-0.12453 1.2588c-0.32025-0.20015-1.1787-0.40031-1.5167-0.40031-0.73835 0-1.3788 0.30691-1.3788 0.95185 0 1.5923 3.3848 1.1342 3.3848 3.6339 0 1.6724-1.3299 2.4374-2.7266 2.4374-0.73836 0-1.49-0.0756-2.1483-0.43145zm-3.3003-2.1928c-0.3069 0-0.61381-0.0311-0.92071-0.0311-0.78283 0-2.7132 0.12455-2.7132 1.5034 0 0.82731 0.79617 1.2721 1.4589 1.2721 1.4233 0 2.175-0.88958 2.175-2.0549zm-4.2789-3.5405c0.72055-0.43145 1.579-0.73836 2.5753-0.73836 2.2373 0 3.1447 1.1031 3.1447 3.2336v3.2381c0 0.88512 0.0311 1.3032 0.0623 1.5301h-1.3522v-1.0097h-0.0266c-0.33804 0.47592-1.1075 1.1965-2.4241 1.1965-1.6858 0-2.8689-0.73835-2.8689-2.4374 0-1.9615 2.1483-2.5753 3.6339-2.5753 0.56933 0 0.96964 0 1.5345 0.0311 0-1.3522-0.48927-2.0416-1.9304-2.0416-0.81396 0-1.6858 0.3069-2.2684 0.80061zm-2.175 0.6138h-2.0727v4.2744c0 0.90292 0.55599 1.3966 1.2143 1.3966 0.44478 0 0.76503-0.13788 0.97853-0.27577v1.2232c-0.32025 0.0934-0.76503 0.21795-1.2276 0.21795-1.4856 0-2.4063-0.70722-2.4063-2.2684v-4.568h-1.7614v-1.1654h1.7614v-1.8103l1.4411-0.46258v2.2729h2.0727zm-13.526-1.1654h1.3966v1.241h0.0311c0.42699-0.88958 1.4722-1.4278 2.562-1.4278 2.0193 0 2.9267 1.2588 2.9267 3.3582v4.6436h-1.4411v-4.0476c0-1.8236-0.40031-2.7088-1.6591-2.7888-1.6368 0-2.3752 1.321-2.3752 3.2203v3.6161h-1.4411zm-5.9024 6.8364c1.6858 0 2.4374-1.5345 2.4374-2.9267 0-1.49-0.90292-2.9312-2.4374-2.9312-1.5479 0-2.4508 1.4411-2.4508 2.9312 0 1.3922 0.74725 2.9267 2.4508 2.9267m0-7.0232c2.3752 0 3.972 1.7169 3.972 4.0965 0 2.2373-1.6279 4.0921-3.972 4.0921-2.3618 0-3.9853-1.8548-3.9853-4.0921 0-2.3796 1.5923-4.0965 3.9853-4.0965m-7.3435 4.2789c-0.3069 0-0.61381-0.0311-0.92071-0.0311-0.78283 0-2.7132 0.12455-2.7132 1.5034 0 0.82731 0.79618 1.2721 1.4545 1.2721 1.4278 0 2.1795-0.88958 2.1795-2.0549zm-4.2789-3.5405c0.72055-0.43145 1.579-0.73836 2.5753-0.73836 2.2373 0 3.1447 1.1031 3.1447 3.2336v3.2381c0 0.88512 0.0311 1.3032 0.0578 1.5301h-1.3477v-1.0097h-0.0312c-0.33803 0.47592-1.1031 1.1965-2.4196 1.1965-1.6858 0-2.8689-0.73835-2.8689-2.4374 0-1.9615 2.1483-2.5753 3.6339-2.5753 0.56488 0 0.96519 0 1.5345 0.0311 0-1.3522-0.49371-2.0416-1.9348-2.0416-0.80952 0-1.6858 0.3069-2.2684 0.80061zm-9.7364-4.2299h1.4411v4.7948h0.0311c0.5204-0.8273 1.4233-1.3032 2.513-1.3032 2.0238 0 2.9312 1.2588 2.9312 3.3582v4.6436h-1.4411v-4.0476c0-1.8236-0.40031-2.7088-1.6591-2.7888-1.6413 0-2.3752 1.321-2.3752 3.2203v3.6161h-1.4411zm-13.646 3.6784h1.3477v1.1342h0.0311c0.55155-0.90737 1.3344-1.321 2.4819-1.321 0.90737 0 1.8103 0.46259 2.2239 1.5212 0.53819-1.1209 1.7169-1.5212 2.4241-1.5212 1.9926 0 2.7132 1.2899 2.7132 2.989v5.0128h-1.4411v-4.6569c0-0.96519-0.23129-2.1795-1.3966-2.1795-1.4722 0-2.0549 1.4411-2.0549 2.8956v3.9408h-1.4367v-4.6569c0-0.96519-0.23129-2.1795-1.3966-2.1795-1.4722 0-2.0549 1.4411-2.0549 2.8956v3.9408h-1.4411zm-5.889 6.8364c1.6858 0 2.4374-1.5345 2.4374-2.9267 0-1.49-0.90292-2.9312-2.4374-2.9312-1.5479 0-2.4508 1.4411-2.4508 2.9312 0 1.3922 0.74725 2.9267 2.4508 2.9267m0-7.0232c2.3752 0 3.972 1.7169 3.972 4.0965 0 2.2373-1.6279 4.0921-3.972 4.0921-2.3618 0-3.9853-1.8548-3.9853-4.0921 0-2.3796 1.5923-4.0965 3.9853-4.0965m-5.3063 1.5034c-0.55153-0.23129-1.1031-0.33804-1.5657-0.33804-1.6101 0-2.513 1.4411-2.513 2.9267 0 1.3966 0.75169 2.9312 2.6065 2.9312 0.49371 0 1.1031-0.15123 1.5479-0.44478l0.11124 1.2899c-0.60047 0.27132-1.2899 0.32025-1.8103 0.32025-2.3618 0-3.9898-1.8548-3.9898-4.0965 0-2.3752 1.5968-4.0921 3.9898-4.0921 0.58267 0 1.3344 0.1379 1.748 0.30691z" fill="#fff"/>
 <path id="Glas" d="m137.13 241.46c0.56487 0.36472 1.3788 0.55153 1.7925 0.55153 0.6583 0 1.4723-0.27577 1.4723-1.1209 0-1.4233-3.3893-1.3032-3.3893-3.4916 0-1.6279 1.2098-2.4108 2.7577-2.4108 0.67608 0 1.2276 0.1379 1.797 0.30691l-0.12454 1.2588c-0.32025-0.20015-1.1787-0.40031-1.5167-0.40031-0.7339 0-1.3788 0.30691-1.3788 0.95185 0 1.5923 3.3893 1.1342 3.3893 3.6339 0 1.6724-1.3344 2.4374-2.731 2.4374-0.73836 0-1.4856-0.0756-2.1439-0.43145zm-3.3003-2.1928c-0.3069 0-0.61381-0.0311-0.92072-0.0311-0.78283 0-2.7132 0.12455-2.7132 1.5034 0 0.82731 0.79618 1.2721 1.4589 1.2721 1.4233 0 2.175-0.88958 2.175-2.0549zm-4.2789-3.5405c0.72055-0.43145 1.579-0.73836 2.5753-0.73836 2.2417 0 3.1447 1.1031 3.1447 3.2336v3.2381c0 0.88512 0.0312 1.3032 0.0623 1.5301h-1.3522v-1.0097h-0.0266c-0.33803 0.47592-1.1031 1.1965-2.4241 1.1965-1.6858 0-2.8644-0.73835-2.8644-2.4374 0-1.9615 2.1439-2.5753 3.6295-2.5753 0.56933 0 0.96964 0 1.5345 0.0311 0-1.3522-0.48927-2.0416-1.9304-2.0416-0.81397 0-1.6858 0.3069-2.2684 0.80061zm-4.4434-4.2299h1.4411v11.493h-1.4411zm-4.0787 7.677c0-1.6235-0.75614-3.0201-2.2862-3.0201-1.4545 0-2.175 1.579-2.175 2.9134 0 1.4722 0.8273 2.7621 2.175 2.7621s2.2862-1.1965 2.2862-2.6554m1.4367 3.4827c0 2.3752-1.2276 3.7407-4.0298 3.7407-0.82731 0-1.5479-0.10669-2.8066-0.53818l0.15568-1.3344c1.1031 0.50706 1.7614 0.70723 2.82 0.70723 1.5167 0 2.4241-1.0275 2.4241-2.6865v-0.76503h-0.0311c-0.61381 0.81395-1.6279 1.2098-2.6242 1.2098-2.2373 0-3.3404-1.8236-3.3404-3.8474 0-2.006 1.1342-4.1543 3.496-4.1543 1.3788 0 2.1439 0.50706 2.5753 1.3522h0.0311v-1.1654h1.3299z" fill="#fff"/>
 <path id="Rays" d="m88.807 114.14c5.9424-4.5324 9.8743 0.88068 19.366-2.8378 18.094-7.0766 21.817-20.385 24.379-19.224-6.6096 13.7-16.951 26.661-31.189 32.167-4.5769 1.7702-10.96 2.7266-13.793-1.5256-1.8904-2.8333-1.7703-6.2893 1.2365-8.58m9.4873-16.938c1.1698-0.66719 2.4775-1.0986 3.7852-1.4144 1.6101-0.39587 3.2914-0.52931 4.8882-0.9474 2.9623-0.76948 5.7689-2.0371 8.3576-3.6606 5.8134-3.6339 10.862-8.5933 14.687-14.273 2.4686-3.6651 4.35-7.7794 5.6666-12.049 0.59602-1.9215 1.0808-3.0957 2.2595-3.158-2.3618 15.59-10.484 30.392-22.675 40.627-3.6206 3.0468-8.0151 5.8534-12.859 6.2804-2.8778 0.25353-6.4005-0.26243-7.4546-3.4471-0.67608-2.0416-0.2046-4.5635 1.1742-6.187 0.61826-0.72945 1.361-1.3077 2.1706-1.7702m-26.477-18.548c-0.676-0.191-1.285-0.507-1.735-0.996-1.361-1.4722-1.2498-3.7407-0.50706-5.4531 1.2009-2.771 3.3003-4.8082 5.3019-6.9921 3.1091-3.3937 6.0625-5.8178 9.4295-8.9536 2.7399-2.5575 5.849-5.7422 8.2864-8.6156 1.9126-2.2506 4.826-6.5384 6.4361-9.007 2.9445-4.5102 4.052-10.114 4.4168-16.288 0.18681-3.1313-0.18237-5.1551-0.46703-7.8861-0.0445-0.47148-0.0445-1.3655 0.42254-1.5167 3.6962 6.3783 3.8207 23.627-2.7844 36.473-4.826 9.3984-10.951 18.543-17.938 25.126-2.0505 1.708-4.4212 3.7763-7.1478 4.221-1.0808 0.17792-2.5042 0.22685-3.714-0.11113m-12.134-6.792c5.2263-7.6682 8.2064-10.808 13.993-15.83 0.79617-0.68942 0.91627 0.22685 0.72501 0.72056-11.551 12.672-6.0669 18.401-8.6245 24.739-0.68052 2.264-2.9623 5.2663-5.7066 5.6711-2.4552 0.36474-4.6747-2.0282-4.6125-4.4123 0.0978-3.6384 2.2506-7.9973 4.2255-10.888m-7.1789 17.872c2.224-0.87179 4.7326 0.43144 4.9638 2.8956 0.31135 3.3404-2.1617 6.9832-5.1507 8.3176-1.0008 0.44479-2.1261 0.75169-3.2025 0.94295-1.4544 0.25353-3.0246 0.46258-4.2388 1.3744-1.8904 1.4144-3.3537 5.8579-4.2566 5.6666-0.34248-0.0712 0.8451-4.6302 0.983-5.0528 0.53374-1.6324 1.2498-3.2025 2.1083-4.6881 1.7347-2.9801 3.8608-5.7689 6.4939-8.0106 0.65384-0.56044 1.4456-1.1075 2.2996-1.4456m-7.6281 17.325c1.8859-1.6368 3.4293-1.7169 4.4034-1.4723 2.3618 0.58713 3.3493 3.3804 2.2506 5.3997-1.4322 2.6332-4.5057 4.1766-6.5295 6.3116-1.2098 1.2765-2.433 2.7577-3.3048 4.2922-0.68498 1.1965-1.1565 2.562-1.3255 3.9364-0.0978 0.80952-0.08 1.7124-0.33358 2.4908-0.0667 0.20015-0.16902 0.4092-0.32915 0.55153-0.0311 0.0311-0.49371 0.29357-0.50261 0.21795-0.94739-7.557-0.39141-16.484 5.6711-21.728m0.94295 12.281c2.9712-4.1766 7.1833-4.9683 9.474-2.5398 1.3788 1.4634 1.9927 3.3626 0.40476 5.6043-2.9222 4.1454-6.3382 3.6606-9.4073 12.054-2.6999 8.1841 0.39141 15.741-1.4144 17.009-3.4782-6.6318-3.7229-17.289-3.7229-17.765 0-5.1951 1.4678-9.8743 4.6658-14.362m13.615 5.4309c1.3877 0.39141 2.3262 1.49 2.8511 2.7977 1.6368 4.0832-3.3493 12.605-5.6355 16.204-7.6148 11.707-2.6287 17.111-4.2833 17.338-3.9586-4.6614-4.0743-15.545-2.642-23.365 0.8273-4.5102 2.2907-11.969 7.8105-13.09 0.56933-0.11564 1.241-0.0667 1.8992 0.11566m4.8215 6.3293c0.72945-2.0149 2.0638-3.8474 4.141-4.3856 1.9081-0.49816 4.8571 0.16457 5.9513 2.0727 3.3759 5.9112-8.024 17.676 1.361 18.895 3.3092 0.46703 6.9476-1.9526 9.5007-4.2477 0 3.3092-3.6473 5.8312-7.081 7.0855-3.5717 1.192-8.2597 0.91182-11.315-1.619-5.1818-4.2878-4.7236-11.814-2.5575-17.8m15.087-8.0062c0.31579-0.20905 0.64939-0.38252 1.0008-0.50706 4.6836-1.6769 6.6718 3.6918 10.159 5.2974 12.343 5.68 18.392-6.5784 20.509-5.7066-3.6517 11.547-18.219 19.068-30.237 12.281-1.837-1.0408-3.5716-2.8066-4.0387-5.1684-0.44033-2.224 0.71166-4.9194 2.6065-6.1959m14.906-56.538c11.694-7.0143 20.576-18.606 24.908-31.478 2.0505-6.0847 3.545-12.596 3.2603-19.059-0.0311-0.68943-0.32469-5.1418-0.88068-7.0455 1.7124-0.22239 2.2862 3.3937 2.5131 4.4434 2.8689 12.298 0.854 26.345-3.3893 38.216-1.2321 3.4471-2.7799 6.8231-4.6258 9.9855-2.8555 4.9016-6.2626 9.434-10.497 13.228-3.4649 3.1091-9.5674 7.726-14.594 5.8801-2.7532-1.0097-4.012-3.8874-3.4516-6.614 0.72944-3.5761 3.8163-5.7956 6.7563-7.557m9.2071 13.103c18.872-8.0863 28.346-28.346 31.18-47.712 2.3885 0.97409 0.13344 28.702-15.118 47.712-2.6954 3.3582-5.4887 6.832-9.0292 9.345-2.7488 1.9526-7.5303 4.2433-10.933 2.6821-2.4108-1.1075-3.1669-4.3945-2.2062-6.6051 1.1031-2.5219 3.6339-4.3634 6.107-5.422" fill="#e8b519"/>
 <path id="Centre" d="m58.681 116.91c3.2781 4.0031 8.113 4.6214 12.481 3.5005 4.0965-1.0497 9.5718-4.1143 14.042-9.7409 7.0455-8.8691 9.2027-20.033 3.9675-26.683-3.2692-4.1454-7.9662-4.5813-12.356-3.5227-4.35 1.0542-9.3005 3.6962-14.024 9.6074-5.7645 7.2189-7.5881 14.393-6.6807 20.674 0.3158 2.2284 1.0275 4.2922 2.5709 6.1648" fill-rule="evenodd" fill="#7fba00"/>
</svg>