<?xml version="1.0" encoding="UTF-8"?>
<!-- Svg Vector Icons : http://www.onlinewebfonts.com/icon -->
<!DOCTYPE svg PUBLIC "-//W3C//DTD SVG 1.1//EN" "http://www.w3.org/Graphics/SVG/1.1/DTD/svg11.dtd">
<svg version="1.1" xmlns="http://www.w3.org/2000/svg" xmlns:xlink="http://www.w3.org/1999/xlink" x="0px" y="0px" viewBox="0 0 1000 1000" enable-background="new 0 0 1000 1000" xml:space="preserve">
<metadata> Svg Vector Icons : http://www.onlinewebfonts.com/icon </metadata>
<g><path d="M790.4,418.5c11.2-2.8,21.9-10.2,32.9-10.4c16.9-0.4,36.1-0.6,50.5,6.6c25,12.5,27,39.7,4.1,56.3c-18.3,13.1-40.4,21.8-61.8,30c-47.6,18.4-53.9,32.2-29.9,77.3c39.9,74.7,95.7,130.3,181.2,150.8c8.8,2.1,23.1,11.9,22.6,17c-1,11.7-6.7,28.8-15.5,32.9c-28.7,13.5-59.2,24.9-90.1,31.5c-19.3,4-26.5,11.1-30.6,29.3c-8.7,38.3-16.3,43.1-53.4,35.7c-59.1-11.9-111-1.7-161.4,34.7c-101.6,73.5-177.3,73.2-278.6-0.4c-49.4-36-100.6-46.1-158.8-34.1c-39,8-45.7,3.3-55.1-36.4c-3.9-16.2-9.9-24.6-28.8-28.2c-29.4-5.5-58.7-15.2-85.8-27.9c-10.9-5-19.6-22.4-21.8-35.2c-0.9-5.3,17.4-17.3,28.6-20.4c92-25.1,148-88.1,185.7-171.5c8.9-19.7,1.4-33.7-15-42.9c-14.6-8-31.1-12.6-46.6-19.1c-9.8-4.1-19.8-8.3-28.8-13.8c-18.3-11.3-33.7-25.4-23.1-49.7c8.6-20,37.1-30.6,59.5-23.4c12.7,4,25.1,9.3,38.1,12.1c16.9,3.6,26.5-1.2,25.8-21.9c-1.5-47.1-4.2-94.6-0.4-141.5c8-99.1,66-164.5,155.2-199.3C517.9,6.3,671.9,44.1,741.4,168.8c24.4,43.7,28.1,91.1,30.1,139.4c-1.9,30.3-3.5,60.5-5.9,90.7C764.2,418.5,774.5,422.5,790.4,418.5z"/></g>
</svg>