<?xml version="1.0" encoding="UTF-8" standalone="no"?>
<!-- Created with Inkscape (http://www.inkscape.org/) -->

<svg
   xmlns:dc="http://purl.org/dc/elements/1.1/"
   xmlns:cc="http://creativecommons.org/ns#"
   xmlns:rdf="http://www.w3.org/1999/02/22-rdf-syntax-ns#"
   xmlns:svg="http://www.w3.org/2000/svg"
   xmlns="http://www.w3.org/2000/svg"
   xmlns:sodipodi="http://sodipodi.sourceforge.net/DTD/sodipodi-0.dtd"
   xmlns:inkscape="http://www.inkscape.org/namespaces/inkscape"
   width="53.673458mm"
   height="53.673458mm"
   viewBox="0 0 53.673458 53.673458"
   version="1.1"
   id="svg39"
   inkscape:version="0.92.1 r15371"
   sodipodi:docname="safari-pinned-tab.svg">
  <defs
     id="defs33" />
  <sodipodi:namedview
     id="base"
     pagecolor="#ffffff"
     bordercolor="#666666"
     borderopacity="1.0"
     inkscape:pageopacity="0.0"
     inkscape:pageshadow="2"
     inkscape:zoom="0.98994949"
     inkscape:cx="112.05709"
     inkscape:cy="77.288913"
     inkscape:document-units="mm"
     inkscape:current-layer="layer1"
     showgrid="false"
     fit-margin-top="0"
     fit-margin-left="0"
     fit-margin-right="0"
     fit-margin-bottom="0"
     inkscape:window-width="1280"
     inkscape:window-height="657"
     inkscape:window-x="-8"
     inkscape:window-y="-8"
     inkscape:window-maximized="1" />
  <metadata
     id="metadata36">
    <rdf:RDF>
      <cc:Work
         rdf:about="">
        <dc:format>image/svg+xml</dc:format>
        <dc:type
           rdf:resource="http://purl.org/dc/dcmitype/StillImage" />
        <dc:title />
      </cc:Work>
    </rdf:RDF>
  </metadata>
  <g
     inkscape:label="Layer 1"
     inkscape:groupmode="layer"
     id="layer1"
     transform="translate(-13.98549,-3.4325691)">
    <g
       id="g4553"
       transform="translate(9.3565745)"
       style="fill:#000000">
      <path
         d="m 31.613509,40.535211 c 2.096347,-1.59893 3.483434,0.31069 6.831895,-1.00111 6.38316,-2.49647 7.696552,-7.19137 8.600369,-6.7818 -2.33172,4.83306 -5.979935,9.40541 -11.002786,11.3478 -1.614628,0.62449 -3.866444,0.96189 -4.865864,-0.53819 -0.666891,-0.99953 -0.624522,-2.21873 0.43621,-3.02684 m 3.346909,-5.97535 c 0.412679,-0.23537 0.874007,-0.38756 1.335334,-0.49897 0.568008,-0.13965 1.161133,-0.18672 1.724449,-0.33422 1.045033,-0.27145 2.035139,-0.71864 2.948374,-1.29138 2.050839,-1.28196 3.831874,-3.03152 5.181249,-5.03519 0.870868,-1.29297 1.534583,-2.7444 1.999051,-4.25062 0.210262,-0.67787 0.38128,-1.0921 0.7971,-1.11408 -0.833189,5.49981 -3.698521,10.72163 -7.999236,14.33231 -1.277267,1.07484 -2.827549,2.06495 -4.536369,2.21558 -1.015224,0.0894 -2.257955,-0.0926 -2.629818,-1.21606 -0.238506,-0.72023 -0.07218,-1.6099 0.414232,-2.18263 0.218108,-0.25734 0.480131,-0.46133 0.76574,-0.62449 m -9.340498,-6.54332 c -0.238478,-0.0674 -0.45332,-0.17886 -0.61207,-0.35137 -0.48013,-0.51936 -0.440901,-1.31964 -0.178879,-1.92373 0.423651,-0.97755 1.164272,-1.69623 1.870392,-2.46666 1.096822,-1.19722 2.138716,-2.05239 3.326518,-3.15863 0.966577,-0.902231 2.063398,-2.025722 2.923258,-3.039394 0.674723,-0.793962 1.702506,-2.306602 2.270514,-3.17747 1.038754,-1.591098 1.429455,-3.567994 1.558149,-5.7460444 0.0659,-1.104653 -0.06434,-1.818605 -0.164758,-2.782041 -0.0157,-0.166328 -0.0157,-0.481718 0.149062,-0.535058 1.303938,2.250122 1.347859,8.3350814 -0.982274,12.8668644 -1.702506,3.315543 -3.86327,6.541563 -6.328128,8.863893 -0.723371,0.60255 -1.559701,1.3322 -2.521585,1.48908 -0.381282,0.0628 -0.883426,0.08 -1.310217,-0.0392 m -4.280606,-2.39607 c 1.843723,-2.70517 2.895036,-3.81283 4.93642,-5.58448 0.280871,-0.243209 0.32324,0.08 0.255767,0.2542 -4.074936,4.4704 -2.140267,6.49147 -3.042531,8.72737 -0.240073,0.79869 -1.045034,1.85784 -2.013162,2.00064 -0.86614,0.12867 -1.649131,-0.7155 -1.627188,-1.55656 0.0345,-1.28355 0.793962,-2.82127 1.490663,-3.84105 m -2.532557,6.30485 c 0.784578,-0.30755 1.669556,0.1522 1.751118,1.0215 0.109838,1.17842 -0.762599,2.46352 -1.817052,2.93427 -0.35306,0.15691 -0.750041,0.26518 -1.129771,0.33265 -0.51308,0.0894 -1.067012,0.16319 -1.495354,0.48486 -0.666892,0.49896 -1.183111,2.06653 -1.501634,1.99905 -0.12082,-0.0251 0.298132,-1.63344 0.34678,-1.78252 0.188292,-0.57587 0.440902,-1.12977 0.743762,-1.65386 0.611963,-1.05131 1.362004,-2.03514 2.290903,-2.82596 0.23066,-0.19771 0.509976,-0.3907 0.811248,-0.50997 m -2.691024,6.11187 c 0.665303,-0.57743 1.209781,-0.60568 1.553422,-0.51939 0.83319,0.20712 1.181558,1.19253 0.793961,1.90489 -0.505248,0.92894 -1.589511,1.47341 -2.303462,2.22659 -0.426791,0.45032 -0.858309,0.97286 -1.16586,1.51419 -0.241646,0.42211 -0.407988,0.90382 -0.467607,1.38868 -0.0345,0.28558 -0.02822,0.6041 -0.11768,0.8787 -0.02353,0.0706 -0.05963,0.14435 -0.116117,0.19457 -0.01097,0.011 -0.17417,0.10356 -0.177309,0.0769 -0.334219,-2.66594 -0.138081,-5.81519 2.000638,-7.66516 m 0.332652,4.33247 c 1.048173,-1.47342 2.534108,-1.75271 3.342216,-0.89599 0.48641,0.51626 0.702981,1.18625 0.142791,1.97707 -1.030887,1.46241 -2.235976,1.29138 -3.318687,4.25239 -0.952465,2.88716 0.138081,5.55307 -0.498969,6.00039 -1.227031,-2.33955 -1.313356,-6.09917 -1.313356,-6.26709 0,-1.83272 0.517807,-3.48344 1.64599,-5.0666 m 4.80307,1.9159 c 0.48955,0.13808 0.820632,0.52564 1.005805,0.98697 0.577427,1.44046 -1.181559,4.44676 -1.988079,5.71641 -2.686333,4.12997 -0.927347,6.03638 -1.511054,6.11646 -1.396506,-1.64444 -1.437322,-5.48393 -0.932039,-8.24265 0.291854,-1.5911 0.808109,-4.2224 2.755372,-4.61786 0.200847,-0.0408 0.437797,-0.0235 0.669995,0.0408 m 1.700918,2.23283 c 0.257334,-0.71081 0.728063,-1.35727 1.460853,-1.54714 0.673135,-0.17574 1.713477,0.0581 2.099486,0.7312 1.190943,2.08535 -2.830689,6.23571 0.480131,6.66574 1.167412,0.16476 2.450959,-0.68883 3.351636,-1.49849 0,1.16741 -1.286686,2.05711 -2.498019,2.4996 -1.260017,0.42052 -2.913839,0.32167 -3.991681,-0.57114 -1.828024,-1.51264 -1.666381,-4.16772 -0.902229,-6.27945 m 5.322358,-2.82441 c 0.111404,-0.0738 0.229091,-0.13494 0.35306,-0.17888 1.65227,-0.59157 2.353663,1.30239 3.58387,1.86881 4.354336,2.00377 6.488289,-2.32072 7.23512,-2.01316 -1.288239,4.07352 -6.427259,6.72676 -10.666943,4.33246 -0.648052,-0.36717 -1.259981,-0.99011 -1.424763,-1.8233 -0.155339,-0.78458 0.251058,-1.73545 0.919515,-2.18577 m 5.258506,-19.94535 c 4.125384,-2.47449 7.258755,-6.563788 8.786988,-11.104743 0.723371,-2.146548 1.250598,-4.4435904 1.150163,-6.7235934 -0.01098,-0.243215 -0.114544,-1.813912 -0.310685,-2.485496 0.604097,-0.07845 0.806522,1.197223 0.886566,1.567533 1.012084,4.338462 0.301273,9.2939314 -1.19567,13.4817564 -0.434658,1.216061 -0.980687,2.407043 -1.631879,3.522663 -1.007357,1.72918 -2.209306,3.32811 -3.703109,4.66655 -1.222339,1.09682 -3.375166,2.72556 -5.148439,2.07436 -0.971268,-0.3562 -1.415344,-1.37138 -1.217648,-2.33327 0.257331,-1.26157 1.346306,-2.04456 2.383473,-2.66594 m 3.24806,4.62245 c 6.657623,-2.85267 9.99984,-9.999843 10.999613,-16.831737 0.842608,0.343637 0.04707,10.125427 -5.333296,16.831737 -0.950876,1.1847 -1.93629,2.41018 -3.185301,3.2967 -0.969716,0.68884 -2.656522,1.49695 -3.85692,0.94619 -0.850476,-0.3907 -1.117211,-1.55028 -0.778298,-2.33013 0.389149,-0.88967 1.281959,-1.53931 2.154414,-1.91276"
         id="Rays"
         style="fill:#000000;fill-opacity:1;stroke-width:0.35277778"
         inkscape:connector-curvature="0" />
      <path
         d="m 20.985725,41.512411 c 1.156441,1.4122 2.862087,1.63032 4.40302,1.2349 1.445154,-0.37031 3.376718,-1.45144 4.953706,-3.43638 2.485496,-3.12882 3.246508,-7.06719 1.399646,-9.41317 -1.153301,-1.4624 -2.810299,-1.61618 -4.358923,-1.24273 -1.534583,0.3719 -3.28101,1.30394 -4.947356,3.38928 -2.033587,2.54667 -2.676913,5.07753 -2.356802,7.29333 0.111407,0.78613 0.362479,1.51419 0.906956,2.1748"
         id="Centre"
         style="fill:#000000;fill-opacity:1;fill-rule:evenodd;stroke-width:0.35277778"
         inkscape:connector-curvature="0" />
    </g>
  </g>
</svg>
